<?xml version="1.0" encoding="UTF-8"?>
<svg xmlns="http://www.w3.org/2000/svg" xmlns:xlink="http://www.w3.org/1999/xlink" width="504" height="360" viewBox="0 0 504 360">
<defs>
<g>
<g id="glyph-0-0">
<path d="M 0.296875 0 L 0.296875 -6.53125 L 5.484375 -6.53125 L 5.484375 0 Z M 4.65625 -0.8125 L 4.65625 -5.71875 L 1.109375 -5.71875 L 1.109375 -0.8125 Z M 4.65625 -0.8125 "/>
</g>
<g id="glyph-0-1">
<path d="M 0.71875 -6.53125 L 1.609375 -6.53125 L 1.609375 -3.828125 L 5.015625 -3.828125 L 5.015625 -6.53125 L 5.90625 -6.53125 L 5.90625 0 L 5.015625 0 L 5.015625 -3.0625 L 1.609375 -3.0625 L 1.609375 0 L 0.71875 0 Z M 0.71875 -6.53125 "/>
</g>
<g id="glyph-0-2">
<path d="M 2.578125 -4.875 C 2.910156 -4.875 3.234375 -4.789062 3.546875 -4.625 C 3.867188 -4.46875 4.113281 -4.265625 4.28125 -4.015625 C 4.4375 -3.773438 4.539062 -3.492188 4.59375 -3.171875 C 4.644531 -2.953125 4.671875 -2.601562 4.671875 -2.125 L 1.171875 -2.125 C 1.191406 -1.644531 1.304688 -1.257812 1.515625 -0.96875 C 1.734375 -0.675781 2.066406 -0.53125 2.515625 -0.53125 C 2.929688 -0.53125 3.265625 -0.664062 3.515625 -0.9375 C 3.660156 -1.09375 3.757812 -1.28125 3.8125 -1.5 L 4.609375 -1.5 C 4.585938 -1.320312 4.515625 -1.125 4.390625 -0.90625 C 4.273438 -0.695312 4.144531 -0.519531 4 -0.375 C 3.757812 -0.144531 3.457031 0.0078125 3.09375 0.09375 C 2.90625 0.144531 2.691406 0.171875 2.453125 0.171875 C 1.859375 0.171875 1.351562 -0.0390625 0.9375 -0.46875 C 0.519531 -0.90625 0.3125 -1.515625 0.3125 -2.296875 C 0.3125 -3.054688 0.519531 -3.675781 0.9375 -4.15625 C 1.351562 -4.632812 1.898438 -4.875 2.578125 -4.875 Z M 3.84375 -2.765625 C 3.8125 -3.109375 3.738281 -3.382812 3.625 -3.59375 C 3.40625 -3.976562 3.035156 -4.171875 2.515625 -4.171875 C 2.148438 -4.171875 1.84375 -4.035156 1.59375 -3.765625 C 1.34375 -3.503906 1.210938 -3.171875 1.203125 -2.765625 Z M 2.5 -4.875 Z M 2.5 -4.875 "/>
</g>
<g id="glyph-0-3">
<path d="M 0.59375 -4.734375 L 1.40625 -4.734375 L 1.40625 0 L 0.59375 0 Z M 0.59375 -6.53125 L 1.40625 -6.53125 L 1.40625 -5.625 L 0.59375 -5.625 Z M 0.59375 -6.53125 "/>
</g>
<g id="glyph-0-4">
<path d="M 2.265625 -4.84375 C 2.640625 -4.84375 2.96875 -4.753906 3.25 -4.578125 C 3.394531 -4.472656 3.546875 -4.320312 3.703125 -4.125 L 3.703125 -4.71875 L 4.453125 -4.71875 L 4.453125 -0.390625 C 4.453125 0.210938 4.363281 0.691406 4.1875 1.046875 C 3.851562 1.691406 3.222656 2.015625 2.296875 2.015625 C 1.785156 2.015625 1.351562 1.898438 1 1.671875 C 0.65625 1.441406 0.460938 1.082031 0.421875 0.59375 L 1.234375 0.59375 C 1.273438 0.800781 1.351562 0.960938 1.46875 1.078125 C 1.644531 1.265625 1.925781 1.359375 2.3125 1.359375 C 2.925781 1.359375 3.328125 1.140625 3.515625 0.703125 C 3.628906 0.441406 3.679688 -0.0078125 3.671875 -0.65625 C 3.515625 -0.414062 3.320312 -0.234375 3.09375 -0.109375 C 2.875 0.00390625 2.578125 0.0625 2.203125 0.0625 C 1.691406 0.0625 1.238281 -0.117188 0.84375 -0.484375 C 0.457031 -0.859375 0.265625 -1.46875 0.265625 -2.3125 C 0.265625 -3.101562 0.457031 -3.722656 0.84375 -4.171875 C 1.238281 -4.617188 1.710938 -4.84375 2.265625 -4.84375 Z M 3.703125 -2.40625 C 3.703125 -2.988281 3.582031 -3.421875 3.34375 -3.703125 C 3.101562 -3.992188 2.796875 -4.140625 2.421875 -4.140625 C 1.847656 -4.140625 1.460938 -3.875 1.265625 -3.34375 C 1.148438 -3.0625 1.09375 -2.691406 1.09375 -2.234375 C 1.09375 -1.703125 1.203125 -1.296875 1.421875 -1.015625 C 1.640625 -0.734375 1.929688 -0.59375 2.296875 -0.59375 C 2.867188 -0.59375 3.273438 -0.851562 3.515625 -1.375 C 3.640625 -1.664062 3.703125 -2.007812 3.703125 -2.40625 Z M 2.359375 -4.875 Z M 2.359375 -4.875 "/>
</g>
<g id="glyph-0-5">
<path d="M 0.59375 -6.5625 L 1.390625 -6.5625 L 1.390625 -4.125 C 1.578125 -4.363281 1.75 -4.53125 1.90625 -4.625 C 2.15625 -4.789062 2.472656 -4.875 2.859375 -4.875 C 3.554688 -4.875 4.023438 -4.632812 4.265625 -4.15625 C 4.398438 -3.894531 4.46875 -3.53125 4.46875 -3.0625 L 4.46875 0 L 3.640625 0 L 3.640625 -3 C 3.640625 -3.351562 3.597656 -3.609375 3.515625 -3.765625 C 3.367188 -4.023438 3.097656 -4.15625 2.703125 -4.15625 C 2.367188 -4.15625 2.066406 -4.039062 1.796875 -3.8125 C 1.523438 -3.59375 1.390625 -3.164062 1.390625 -2.53125 L 1.390625 0 L 0.59375 0 Z M 0.59375 -6.5625 "/>
</g>
<g id="glyph-0-6">
<path d="M 0.75 -6.09375 L 1.5625 -6.09375 L 1.5625 -4.765625 L 2.3125 -4.765625 L 2.3125 -4.109375 L 1.5625 -4.109375 L 1.5625 -1 C 1.5625 -0.832031 1.613281 -0.722656 1.71875 -0.671875 C 1.78125 -0.640625 1.882812 -0.625 2.03125 -0.625 C 2.070312 -0.625 2.113281 -0.625 2.15625 -0.625 C 2.207031 -0.625 2.257812 -0.625 2.3125 -0.625 L 2.3125 0 C 2.21875 0.03125 2.117188 0.0507812 2.015625 0.0625 C 1.921875 0.0703125 1.816406 0.078125 1.703125 0.078125 C 1.328125 0.078125 1.070312 -0.015625 0.9375 -0.203125 C 0.8125 -0.398438 0.75 -0.648438 0.75 -0.953125 L 0.75 -4.109375 L 0.109375 -4.109375 L 0.109375 -4.765625 L 0.75 -4.765625 Z M 0.75 -6.09375 "/>
</g>
<g id="glyph-0-7">
</g>
<g id="glyph-0-8">
<path d="M 0.875 -4.515625 L 0.875 -5.125 C 1.445312 -5.175781 1.847656 -5.269531 2.078125 -5.40625 C 2.304688 -5.539062 2.476562 -5.851562 2.59375 -6.34375 L 3.21875 -6.34375 L 3.21875 0 L 2.375 0 L 2.375 -4.515625 Z M 0.875 -4.515625 "/>
</g>
<g id="glyph-0-9">
<path d="M 1.265625 -2.109375 C 1.285156 -1.734375 1.375 -1.429688 1.53125 -1.203125 C 1.820312 -0.773438 2.34375 -0.5625 3.09375 -0.5625 C 3.414062 -0.5625 3.71875 -0.609375 4 -0.703125 C 4.519531 -0.878906 4.78125 -1.207031 4.78125 -1.6875 C 4.78125 -2.039062 4.671875 -2.296875 4.453125 -2.453125 C 4.222656 -2.597656 3.867188 -2.722656 3.390625 -2.828125 L 2.515625 -3.03125 C 1.929688 -3.164062 1.519531 -3.3125 1.28125 -3.46875 C 0.863281 -3.738281 0.65625 -4.144531 0.65625 -4.6875 C 0.65625 -5.269531 0.859375 -5.75 1.265625 -6.125 C 1.671875 -6.507812 2.25 -6.703125 3 -6.703125 C 3.675781 -6.703125 4.253906 -6.535156 4.734375 -6.203125 C 5.210938 -5.867188 5.453125 -5.335938 5.453125 -4.609375 L 4.625 -4.609375 C 4.582031 -4.960938 4.488281 -5.234375 4.34375 -5.421875 C 4.070312 -5.765625 3.613281 -5.9375 2.96875 -5.9375 C 2.445312 -5.9375 2.070312 -5.828125 1.84375 -5.609375 C 1.613281 -5.390625 1.5 -5.132812 1.5 -4.84375 C 1.5 -4.519531 1.632812 -4.285156 1.90625 -4.140625 C 2.070312 -4.046875 2.46875 -3.925781 3.09375 -3.78125 L 4 -3.578125 C 4.445312 -3.472656 4.789062 -3.332031 5.03125 -3.15625 C 5.445312 -2.851562 5.65625 -2.410156 5.65625 -1.828125 C 5.65625 -1.109375 5.390625 -0.59375 4.859375 -0.28125 C 4.328125 0.0273438 3.71875 0.1875 3.03125 0.1875 C 2.21875 0.1875 1.578125 -0.0195312 1.109375 -0.4375 C 0.648438 -0.84375 0.425781 -1.398438 0.4375 -2.109375 Z M 3.0625 -6.71875 Z M 3.0625 -6.71875 "/>
</g>
<g id="glyph-0-10">
<path d="M 3.203125 -0.75 C 3.503906 -0.75 3.75 -0.78125 3.9375 -0.84375 C 4.28125 -0.957031 4.5625 -1.179688 4.78125 -1.515625 C 4.957031 -1.773438 5.082031 -2.113281 5.15625 -2.53125 C 5.207031 -2.78125 5.234375 -3.007812 5.234375 -3.21875 C 5.234375 -4.03125 5.070312 -4.65625 4.75 -5.09375 C 4.425781 -5.539062 3.90625 -5.765625 3.1875 -5.765625 L 1.625 -5.765625 L 1.625 -0.75 Z M 0.734375 -6.53125 L 3.375 -6.53125 C 4.28125 -6.53125 4.976562 -6.210938 5.46875 -5.578125 C 5.914062 -5.003906 6.140625 -4.265625 6.140625 -3.359375 C 6.140625 -2.671875 6.007812 -2.046875 5.75 -1.484375 C 5.28125 -0.492188 4.488281 0 3.375 0 L 0.734375 0 Z M 0.734375 -6.53125 "/>
</g>
<g id="glyph-0-11">
<path d="M 5.046875 -3.65625 L 5.046875 -2.90625 L 0.40625 -2.90625 L 0.40625 -3.65625 Z M 5.046875 -1.75 L 5.046875 -0.984375 L 0.40625 -0.984375 L 0.40625 -1.75 Z M 5.046875 -1.75 "/>
</g>
<g id="glyph-0-12">
<path d="M 2.484375 -3.703125 C 2.828125 -3.703125 3.097656 -3.800781 3.296875 -4 C 3.503906 -4.195312 3.609375 -4.429688 3.609375 -4.703125 C 3.609375 -4.941406 3.507812 -5.160156 3.3125 -5.359375 C 3.125 -5.554688 2.835938 -5.65625 2.453125 -5.65625 C 2.066406 -5.65625 1.785156 -5.554688 1.609375 -5.359375 C 1.441406 -5.160156 1.359375 -4.925781 1.359375 -4.65625 C 1.359375 -4.351562 1.46875 -4.117188 1.6875 -3.953125 C 1.914062 -3.785156 2.179688 -3.703125 2.484375 -3.703125 Z M 2.53125 -0.546875 C 2.894531 -0.546875 3.195312 -0.644531 3.4375 -0.84375 C 3.6875 -1.039062 3.8125 -1.34375 3.8125 -1.75 C 3.8125 -2.15625 3.6875 -2.460938 3.4375 -2.671875 C 3.1875 -2.890625 2.863281 -3 2.46875 -3 C 2.082031 -3 1.769531 -2.890625 1.53125 -2.671875 C 1.289062 -2.453125 1.171875 -2.148438 1.171875 -1.765625 C 1.171875 -1.429688 1.28125 -1.144531 1.5 -0.90625 C 1.71875 -0.664062 2.0625 -0.546875 2.53125 -0.546875 Z M 1.390625 -3.390625 C 1.160156 -3.484375 0.988281 -3.597656 0.875 -3.734375 C 0.632812 -3.960938 0.515625 -4.269531 0.515625 -4.65625 C 0.515625 -5.125 0.6875 -5.53125 1.03125 -5.875 C 1.375 -6.21875 1.863281 -6.390625 2.5 -6.390625 C 3.101562 -6.390625 3.578125 -6.226562 3.921875 -5.90625 C 4.273438 -5.582031 4.453125 -5.207031 4.453125 -4.78125 C 4.453125 -4.382812 4.351562 -4.0625 4.15625 -3.8125 C 4.039062 -3.675781 3.863281 -3.539062 3.625 -3.40625 C 3.882812 -3.28125 4.09375 -3.140625 4.25 -2.984375 C 4.53125 -2.691406 4.671875 -2.304688 4.671875 -1.828125 C 4.671875 -1.265625 4.484375 -0.785156 4.109375 -0.390625 C 3.734375 -0.00390625 3.203125 0.1875 2.515625 0.1875 C 1.890625 0.1875 1.363281 0.0195312 0.9375 -0.3125 C 0.507812 -0.65625 0.296875 -1.144531 0.296875 -1.78125 C 0.296875 -2.164062 0.382812 -2.492188 0.5625 -2.765625 C 0.75 -3.035156 1.023438 -3.242188 1.390625 -3.390625 Z M 1.390625 -3.390625 "/>
</g>
<g id="glyph-0-13">
<path d="M 1.203125 -6.53125 L 3.09375 -0.96875 L 4.9375 -6.53125 L 5.9375 -6.53125 L 3.546875 0 L 2.609375 0 L 0.234375 -6.53125 Z M 1.203125 -6.53125 "/>
</g>
<g id="glyph-0-14">
<path d="M 1.203125 -1.265625 C 1.203125 -1.035156 1.285156 -0.851562 1.453125 -0.71875 C 1.617188 -0.582031 1.820312 -0.515625 2.0625 -0.515625 C 2.34375 -0.515625 2.613281 -0.582031 2.875 -0.71875 C 3.320312 -0.9375 3.546875 -1.289062 3.546875 -1.78125 L 3.546875 -2.421875 C 3.441406 -2.359375 3.3125 -2.304688 3.15625 -2.265625 C 3.007812 -2.222656 2.859375 -2.191406 2.703125 -2.171875 L 2.21875 -2.125 C 1.925781 -2.082031 1.707031 -2.019531 1.5625 -1.9375 C 1.320312 -1.789062 1.203125 -1.566406 1.203125 -1.265625 Z M 3.140625 -2.890625 C 3.328125 -2.910156 3.453125 -2.988281 3.515625 -3.125 C 3.546875 -3.1875 3.5625 -3.285156 3.5625 -3.421875 C 3.5625 -3.691406 3.460938 -3.890625 3.265625 -4.015625 C 3.078125 -4.140625 2.800781 -4.203125 2.4375 -4.203125 C 2.019531 -4.203125 1.722656 -4.085938 1.546875 -3.859375 C 1.453125 -3.734375 1.390625 -3.550781 1.359375 -3.3125 L 0.609375 -3.3125 C 0.617188 -3.894531 0.804688 -4.300781 1.171875 -4.53125 C 1.546875 -4.757812 1.972656 -4.875 2.453125 -4.875 C 3.015625 -4.875 3.472656 -4.769531 3.828125 -4.5625 C 4.171875 -4.34375 4.34375 -4.007812 4.34375 -3.5625 L 4.34375 -0.8125 C 4.34375 -0.726562 4.359375 -0.660156 4.390625 -0.609375 C 4.421875 -0.566406 4.492188 -0.546875 4.609375 -0.546875 C 4.640625 -0.546875 4.675781 -0.546875 4.71875 -0.546875 C 4.769531 -0.554688 4.820312 -0.5625 4.875 -0.5625 L 4.875 0.015625 C 4.75 0.0546875 4.648438 0.0820312 4.578125 0.09375 C 4.515625 0.101562 4.425781 0.109375 4.3125 0.109375 C 4.039062 0.109375 3.84375 0.0078125 3.71875 -0.1875 C 3.65625 -0.289062 3.609375 -0.4375 3.578125 -0.625 C 3.421875 -0.414062 3.1875 -0.234375 2.875 -0.078125 C 2.570312 0.0742188 2.238281 0.15625 1.875 0.15625 C 1.425781 0.15625 1.0625 0.0234375 0.78125 -0.234375 C 0.5 -0.503906 0.359375 -0.84375 0.359375 -1.25 C 0.359375 -1.6875 0.492188 -2.023438 0.765625 -2.265625 C 1.046875 -2.515625 1.410156 -2.671875 1.859375 -2.734375 Z M 2.484375 -4.875 Z M 2.484375 -4.875 "/>
</g>
<g id="glyph-0-15">
<path d="M 0.609375 -4.765625 L 1.375 -4.765625 L 1.375 -3.9375 C 1.4375 -4.101562 1.585938 -4.300781 1.828125 -4.53125 C 2.066406 -4.757812 2.347656 -4.875 2.671875 -4.875 C 2.679688 -4.875 2.703125 -4.867188 2.734375 -4.859375 C 2.773438 -4.859375 2.835938 -4.851562 2.921875 -4.84375 L 2.921875 -4 C 2.878906 -4.007812 2.835938 -4.015625 2.796875 -4.015625 C 2.753906 -4.023438 2.710938 -4.03125 2.671875 -4.03125 C 2.265625 -4.03125 1.953125 -3.898438 1.734375 -3.640625 C 1.515625 -3.378906 1.40625 -3.078125 1.40625 -2.734375 L 1.40625 0 L 0.609375 0 Z M 0.609375 -4.765625 "/>
</g>
<g id="glyph-0-16">
<path d="M 2.671875 -6.390625 C 3.378906 -6.390625 3.875 -6.203125 4.15625 -5.828125 C 4.4375 -5.460938 4.578125 -5.085938 4.578125 -4.703125 L 3.78125 -4.703125 C 3.726562 -4.953125 3.648438 -5.148438 3.546875 -5.296875 C 3.359375 -5.554688 3.066406 -5.6875 2.671875 -5.6875 C 2.222656 -5.6875 1.867188 -5.476562 1.609375 -5.0625 C 1.347656 -4.65625 1.203125 -4.066406 1.171875 -3.296875 C 1.359375 -3.566406 1.585938 -3.769531 1.859375 -3.90625 C 2.117188 -4.019531 2.40625 -4.078125 2.71875 -4.078125 C 3.25 -4.078125 3.710938 -3.90625 4.109375 -3.5625 C 4.503906 -3.226562 4.703125 -2.722656 4.703125 -2.046875 C 4.703125 -1.460938 4.515625 -0.945312 4.140625 -0.5 C 3.765625 -0.0507812 3.226562 0.171875 2.53125 0.171875 C 1.9375 0.171875 1.421875 -0.0507812 0.984375 -0.5 C 0.554688 -0.957031 0.34375 -1.722656 0.34375 -2.796875 C 0.34375 -3.585938 0.4375 -4.257812 0.625 -4.8125 C 1 -5.863281 1.679688 -6.390625 2.671875 -6.390625 Z M 2.609375 -0.546875 C 3.023438 -0.546875 3.335938 -0.6875 3.546875 -0.96875 C 3.753906 -1.25 3.859375 -1.582031 3.859375 -1.96875 C 3.859375 -2.300781 3.765625 -2.613281 3.578125 -2.90625 C 3.398438 -3.195312 3.0625 -3.34375 2.5625 -3.34375 C 2.21875 -3.34375 1.914062 -3.226562 1.65625 -3 C 1.394531 -2.78125 1.265625 -2.4375 1.265625 -1.96875 C 1.265625 -1.570312 1.382812 -1.234375 1.625 -0.953125 C 1.863281 -0.679688 2.191406 -0.546875 2.609375 -0.546875 Z M 2.609375 -0.546875 "/>
</g>
<g id="glyph-0-17">
<path d="M 3.015625 -2.25 L 3.015625 -5.140625 L 0.96875 -2.25 Z M 3.03125 0 L 3.03125 -1.5625 L 0.234375 -1.5625 L 0.234375 -2.34375 L 3.15625 -6.390625 L 3.828125 -6.390625 L 3.828125 -2.25 L 4.765625 -2.25 L 4.765625 -1.5625 L 3.828125 -1.5625 L 3.828125 0 Z M 3.03125 0 "/>
</g>
<g id="glyph-0-18">
<path d="M 0.28125 0 C 0.3125 -0.550781 0.425781 -1.03125 0.625 -1.4375 C 0.820312 -1.84375 1.207031 -2.210938 1.78125 -2.546875 L 2.640625 -3.03125 C 3.015625 -3.25 3.28125 -3.441406 3.4375 -3.609375 C 3.675781 -3.847656 3.796875 -4.128906 3.796875 -4.453125 C 3.796875 -4.816406 3.6875 -5.109375 3.46875 -5.328125 C 3.25 -5.546875 2.953125 -5.65625 2.578125 -5.65625 C 2.023438 -5.65625 1.644531 -5.445312 1.4375 -5.03125 C 1.320312 -4.8125 1.257812 -4.503906 1.25 -4.109375 L 0.4375 -4.109375 C 0.445312 -4.660156 0.550781 -5.113281 0.75 -5.46875 C 1.09375 -6.082031 1.703125 -6.390625 2.578125 -6.390625 C 3.304688 -6.390625 3.835938 -6.191406 4.171875 -5.796875 C 4.515625 -5.398438 4.6875 -4.960938 4.6875 -4.484375 C 4.6875 -3.972656 4.507812 -3.535156 4.15625 -3.171875 C 3.945312 -2.960938 3.570312 -2.707031 3.03125 -2.40625 L 2.421875 -2.078125 C 2.128906 -1.910156 1.898438 -1.753906 1.734375 -1.609375 C 1.441406 -1.359375 1.253906 -1.070312 1.171875 -0.75 L 4.65625 -0.75 L 4.65625 0 Z M 0.28125 0 "/>
</g>
<g id="glyph-0-19">
<path d="M 1.390625 -4.765625 L 1.390625 -1.59375 C 1.390625 -1.351562 1.425781 -1.15625 1.5 -1 C 1.644531 -0.71875 1.910156 -0.578125 2.296875 -0.578125 C 2.859375 -0.578125 3.238281 -0.828125 3.4375 -1.328125 C 3.550781 -1.585938 3.609375 -1.953125 3.609375 -2.421875 L 3.609375 -4.765625 L 4.40625 -4.765625 L 4.40625 0 L 3.640625 0 L 3.65625 -0.703125 C 3.550781 -0.523438 3.421875 -0.375 3.265625 -0.25 C 2.960938 0 2.59375 0.125 2.15625 0.125 C 1.476562 0.125 1.015625 -0.0976562 0.765625 -0.546875 C 0.628906 -0.796875 0.5625 -1.125 0.5625 -1.53125 L 0.5625 -4.765625 Z M 2.484375 -4.875 Z M 2.484375 -4.875 "/>
</g>
<g id="glyph-0-20">
<path d="M 0.59375 -4.765625 L 1.375 -4.765625 L 1.375 -4.09375 C 1.5625 -4.320312 1.734375 -4.488281 1.890625 -4.59375 C 2.160156 -4.78125 2.460938 -4.875 2.796875 -4.875 C 3.171875 -4.875 3.472656 -4.78125 3.703125 -4.59375 C 3.835938 -4.488281 3.957031 -4.332031 4.0625 -4.125 C 4.238281 -4.375 4.445312 -4.5625 4.6875 -4.6875 C 4.925781 -4.8125 5.195312 -4.875 5.5 -4.875 C 6.144531 -4.875 6.582031 -4.640625 6.8125 -4.171875 C 6.9375 -3.921875 7 -3.585938 7 -3.171875 L 7 0 L 6.171875 0 L 6.171875 -3.3125 C 6.171875 -3.625 6.085938 -3.835938 5.921875 -3.953125 C 5.765625 -4.078125 5.570312 -4.140625 5.34375 -4.140625 C 5.03125 -4.140625 4.757812 -4.035156 4.53125 -3.828125 C 4.300781 -3.617188 4.1875 -3.265625 4.1875 -2.765625 L 4.1875 0 L 3.375 0 L 3.375 -3.109375 C 3.375 -3.429688 3.335938 -3.664062 3.265625 -3.8125 C 3.140625 -4.039062 2.910156 -4.15625 2.578125 -4.15625 C 2.273438 -4.15625 2 -4.035156 1.75 -3.796875 C 1.507812 -3.566406 1.390625 -3.144531 1.390625 -2.53125 L 1.390625 0 L 0.59375 0 Z M 0.59375 -4.765625 "/>
</g>
<g id="glyph-0-21">
<path d="M 2.703125 -6.640625 C 2.234375 -5.734375 1.925781 -5.066406 1.78125 -4.640625 C 1.570312 -3.992188 1.46875 -3.242188 1.46875 -2.390625 C 1.46875 -1.535156 1.585938 -0.75 1.828125 -0.03125 C 1.984375 0.40625 2.273438 1.035156 2.703125 1.859375 L 2.171875 1.859375 C 1.734375 1.179688 1.460938 0.75 1.359375 0.5625 C 1.253906 0.375 1.144531 0.117188 1.03125 -0.203125 C 0.863281 -0.640625 0.75 -1.101562 0.6875 -1.59375 C 0.644531 -1.851562 0.625 -2.101562 0.625 -2.34375 C 0.625 -3.21875 0.765625 -4 1.046875 -4.6875 C 1.222656 -5.125 1.585938 -5.773438 2.140625 -6.640625 Z M 2.703125 -6.640625 "/>
</g>
<g id="glyph-0-22">
<path d="M 2.421875 -4.90625 C 2.960938 -4.90625 3.398438 -4.773438 3.734375 -4.515625 C 4.066406 -4.253906 4.269531 -3.800781 4.34375 -3.15625 L 3.5625 -3.15625 C 3.507812 -3.457031 3.398438 -3.703125 3.234375 -3.890625 C 3.066406 -4.085938 2.796875 -4.1875 2.421875 -4.1875 C 1.910156 -4.1875 1.546875 -3.9375 1.328125 -3.4375 C 1.179688 -3.113281 1.109375 -2.710938 1.109375 -2.234375 C 1.109375 -1.765625 1.207031 -1.363281 1.40625 -1.03125 C 1.613281 -0.707031 1.9375 -0.546875 2.375 -0.546875 C 2.707031 -0.546875 2.96875 -0.644531 3.15625 -0.84375 C 3.351562 -1.050781 3.488281 -1.332031 3.5625 -1.6875 L 4.34375 -1.6875 C 4.25 -1.050781 4.023438 -0.585938 3.671875 -0.296875 C 3.316406 -0.00390625 2.863281 0.140625 2.3125 0.140625 C 1.6875 0.140625 1.1875 -0.0859375 0.8125 -0.546875 C 0.445312 -1.003906 0.265625 -1.570312 0.265625 -2.25 C 0.265625 -3.082031 0.46875 -3.734375 0.875 -4.203125 C 1.28125 -4.671875 1.796875 -4.90625 2.421875 -4.90625 Z M 2.296875 -4.875 Z M 2.296875 -4.875 "/>
</g>
<g id="glyph-0-23">
<path d="M 2.484375 -0.515625 C 3.015625 -0.515625 3.375 -0.710938 3.5625 -1.109375 C 3.757812 -1.515625 3.859375 -1.960938 3.859375 -2.453125 C 3.859375 -2.898438 3.789062 -3.265625 3.65625 -3.546875 C 3.425781 -3.984375 3.035156 -4.203125 2.484375 -4.203125 C 1.992188 -4.203125 1.632812 -4.015625 1.40625 -3.640625 C 1.1875 -3.265625 1.078125 -2.816406 1.078125 -2.296875 C 1.078125 -1.785156 1.1875 -1.359375 1.40625 -1.015625 C 1.632812 -0.679688 1.992188 -0.515625 2.484375 -0.515625 Z M 2.515625 -4.90625 C 3.117188 -4.90625 3.632812 -4.695312 4.0625 -4.28125 C 4.488281 -3.875 4.703125 -3.273438 4.703125 -2.484375 C 4.703125 -1.710938 4.515625 -1.078125 4.140625 -0.578125 C 3.765625 -0.078125 3.1875 0.171875 2.40625 0.171875 C 1.75 0.171875 1.226562 -0.046875 0.84375 -0.484375 C 0.457031 -0.929688 0.265625 -1.53125 0.265625 -2.28125 C 0.265625 -3.082031 0.46875 -3.71875 0.875 -4.1875 C 1.28125 -4.664062 1.828125 -4.90625 2.515625 -4.90625 Z M 2.484375 -4.875 Z M 2.484375 -4.875 "/>
</g>
<g id="glyph-0-24">
<path d="M 0.3125 1.859375 C 0.78125 0.941406 1.085938 0.269531 1.234375 -0.15625 C 1.429688 -0.789062 1.53125 -1.535156 1.53125 -2.390625 C 1.53125 -3.242188 1.410156 -4.03125 1.171875 -4.75 C 1.023438 -5.1875 0.734375 -5.816406 0.296875 -6.640625 L 0.84375 -6.640625 C 1.300781 -5.910156 1.578125 -5.457031 1.671875 -5.28125 C 1.765625 -5.113281 1.867188 -4.878906 1.984375 -4.578125 C 2.128906 -4.210938 2.226562 -3.847656 2.28125 -3.484375 C 2.34375 -3.117188 2.375 -2.769531 2.375 -2.4375 C 2.375 -1.5625 2.238281 -0.78125 1.96875 -0.09375 C 1.789062 0.34375 1.425781 0.992188 0.875 1.859375 Z M 0.3125 1.859375 "/>
</g>
<g id="glyph-0-25">
<path d="M 0.78125 -0.96875 L 1.703125 -0.96875 L 1.703125 0 L 0.78125 0 Z M 0.78125 -0.96875 "/>
</g>
<g id="glyph-0-26">
<path d="M 2.359375 0.171875 C 1.609375 0.171875 1.0625 -0.03125 0.71875 -0.4375 C 0.382812 -0.851562 0.21875 -1.359375 0.21875 -1.953125 L 1.046875 -1.953125 C 1.085938 -1.546875 1.164062 -1.25 1.28125 -1.0625 C 1.488281 -0.726562 1.863281 -0.5625 2.40625 -0.5625 C 2.832031 -0.5625 3.171875 -0.671875 3.421875 -0.890625 C 3.679688 -1.117188 3.8125 -1.410156 3.8125 -1.765625 C 3.8125 -2.203125 3.675781 -2.507812 3.40625 -2.6875 C 3.132812 -2.863281 2.757812 -2.953125 2.28125 -2.953125 C 2.226562 -2.953125 2.175781 -2.945312 2.125 -2.9375 C 2.070312 -2.9375 2.015625 -2.9375 1.953125 -2.9375 L 1.953125 -3.640625 C 2.035156 -3.640625 2.101562 -3.632812 2.15625 -3.625 C 2.21875 -3.625 2.28125 -3.625 2.34375 -3.625 C 2.644531 -3.625 2.894531 -3.671875 3.09375 -3.765625 C 3.425781 -3.929688 3.59375 -4.226562 3.59375 -4.65625 C 3.59375 -4.976562 3.476562 -5.222656 3.25 -5.390625 C 3.03125 -5.566406 2.769531 -5.65625 2.46875 -5.65625 C 1.9375 -5.65625 1.566406 -5.472656 1.359375 -5.109375 C 1.242188 -4.921875 1.179688 -4.644531 1.171875 -4.28125 L 0.375 -4.28125 C 0.375 -4.75 0.46875 -5.148438 0.65625 -5.484375 C 0.988281 -6.078125 1.566406 -6.375 2.390625 -6.375 C 3.035156 -6.375 3.535156 -6.226562 3.890625 -5.9375 C 4.242188 -5.65625 4.421875 -5.238281 4.421875 -4.6875 C 4.421875 -4.289062 4.316406 -3.972656 4.109375 -3.734375 C 3.984375 -3.585938 3.816406 -3.46875 3.609375 -3.375 C 3.941406 -3.289062 4.203125 -3.113281 4.390625 -2.84375 C 4.578125 -2.582031 4.671875 -2.265625 4.671875 -1.890625 C 4.671875 -1.273438 4.46875 -0.773438 4.0625 -0.390625 C 3.664062 -0.015625 3.097656 0.171875 2.359375 0.171875 Z M 2.359375 0.171875 "/>
</g>
<g id="glyph-0-27">
<path d="M 0.78125 -5.484375 C 0.800781 -5.816406 0.859375 -6.0625 0.953125 -6.21875 C 1.140625 -6.488281 1.503906 -6.625 2.046875 -6.625 C 2.097656 -6.625 2.148438 -6.625 2.203125 -6.625 C 2.253906 -6.625 2.3125 -6.617188 2.375 -6.609375 L 2.375 -5.875 C 2.289062 -5.882812 2.226562 -5.890625 2.1875 -5.890625 C 2.15625 -5.890625 2.125 -5.890625 2.09375 -5.890625 C 1.851562 -5.890625 1.707031 -5.828125 1.65625 -5.703125 C 1.613281 -5.578125 1.59375 -5.253906 1.59375 -4.734375 L 2.375 -4.734375 L 2.375 -4.109375 L 1.578125 -4.109375 L 1.578125 0 L 0.78125 0 L 0.78125 -4.109375 L 0.125 -4.109375 L 0.125 -4.734375 L 0.78125 -4.734375 Z M 0.78125 -5.484375 "/>
</g>
<g id="glyph-0-28">
<path d="M 1.0625 -1.5 C 1.082031 -1.226562 1.148438 -1.019531 1.265625 -0.875 C 1.460938 -0.625 1.8125 -0.5 2.3125 -0.5 C 2.601562 -0.5 2.863281 -0.5625 3.09375 -0.6875 C 3.320312 -0.8125 3.4375 -1.007812 3.4375 -1.28125 C 3.4375 -1.488281 3.34375 -1.644531 3.15625 -1.75 C 3.039062 -1.8125 2.816406 -1.890625 2.484375 -1.984375 L 1.84375 -2.140625 C 1.4375 -2.242188 1.132812 -2.359375 0.9375 -2.484375 C 0.59375 -2.691406 0.421875 -2.988281 0.421875 -3.375 C 0.421875 -3.820312 0.582031 -4.1875 0.90625 -4.46875 C 1.238281 -4.75 1.675781 -4.890625 2.21875 -4.890625 C 2.9375 -4.890625 3.457031 -4.675781 3.78125 -4.25 C 3.976562 -3.988281 4.070312 -3.703125 4.0625 -3.390625 L 3.3125 -3.390625 C 3.289062 -3.578125 3.226562 -3.742188 3.125 -3.890625 C 2.9375 -4.097656 2.613281 -4.203125 2.15625 -4.203125 C 1.851562 -4.203125 1.625 -4.144531 1.46875 -4.03125 C 1.3125 -3.914062 1.234375 -3.765625 1.234375 -3.578125 C 1.234375 -3.367188 1.335938 -3.203125 1.546875 -3.078125 C 1.660156 -3.003906 1.835938 -2.9375 2.078125 -2.875 L 2.609375 -2.75 C 3.179688 -2.613281 3.566406 -2.476562 3.765625 -2.34375 C 4.066406 -2.132812 4.21875 -1.8125 4.21875 -1.375 C 4.21875 -0.957031 4.054688 -0.59375 3.734375 -0.28125 C 3.421875 0.0273438 2.929688 0.1875 2.265625 0.1875 C 1.554688 0.1875 1.054688 0.0234375 0.765625 -0.296875 C 0.472656 -0.617188 0.316406 -1.019531 0.296875 -1.5 Z M 2.25 -4.875 Z M 2.25 -4.875 "/>
</g>
<g id="glyph-0-29">
<path d="M 1.09375 -2.328125 C 1.09375 -1.816406 1.203125 -1.390625 1.421875 -1.046875 C 1.640625 -0.703125 1.984375 -0.53125 2.453125 -0.53125 C 2.828125 -0.53125 3.132812 -0.6875 3.375 -1 C 3.613281 -1.320312 3.734375 -1.78125 3.734375 -2.375 C 3.734375 -2.976562 3.609375 -3.425781 3.359375 -3.71875 C 3.117188 -4.007812 2.816406 -4.15625 2.453125 -4.15625 C 2.046875 -4.15625 1.71875 -4 1.46875 -3.6875 C 1.21875 -3.375 1.09375 -2.921875 1.09375 -2.328125 Z M 2.296875 -4.84375 C 2.660156 -4.84375 2.96875 -4.765625 3.21875 -4.609375 C 3.351562 -4.523438 3.515625 -4.375 3.703125 -4.15625 L 3.703125 -6.5625 L 4.46875 -6.5625 L 4.46875 0 L 3.75 0 L 3.75 -0.65625 C 3.5625 -0.363281 3.335938 -0.148438 3.078125 -0.015625 C 2.828125 0.109375 2.535156 0.171875 2.203125 0.171875 C 1.679688 0.171875 1.222656 -0.0507812 0.828125 -0.5 C 0.441406 -0.945312 0.25 -1.539062 0.25 -2.28125 C 0.25 -2.976562 0.425781 -3.578125 0.78125 -4.078125 C 1.132812 -4.585938 1.640625 -4.84375 2.296875 -4.84375 Z M 2.296875 -4.84375 "/>
</g>
<g id="glyph-0-30">
<path d="M 1.125 -1.625 C 1.175781 -1.164062 1.390625 -0.847656 1.765625 -0.671875 C 1.953125 -0.585938 2.171875 -0.546875 2.421875 -0.546875 C 2.890625 -0.546875 3.238281 -0.695312 3.46875 -1 C 3.695312 -1.300781 3.8125 -1.632812 3.8125 -2 C 3.8125 -2.445312 3.675781 -2.789062 3.40625 -3.03125 C 3.132812 -3.269531 2.8125 -3.390625 2.4375 -3.390625 C 2.15625 -3.390625 1.914062 -3.335938 1.71875 -3.234375 C 1.519531 -3.128906 1.351562 -2.984375 1.21875 -2.796875 L 0.53125 -2.828125 L 1.015625 -6.265625 L 4.3125 -6.265625 L 4.3125 -5.484375 L 1.609375 -5.484375 L 1.34375 -3.71875 C 1.488281 -3.832031 1.628906 -3.914062 1.765625 -3.96875 C 2.003906 -4.070312 2.273438 -4.125 2.578125 -4.125 C 3.160156 -4.125 3.65625 -3.929688 4.0625 -3.546875 C 4.46875 -3.171875 4.671875 -2.695312 4.671875 -2.125 C 4.671875 -1.519531 4.484375 -0.988281 4.109375 -0.53125 C 3.742188 -0.0703125 3.15625 0.15625 2.34375 0.15625 C 1.820312 0.15625 1.359375 0.0078125 0.953125 -0.28125 C 0.554688 -0.570312 0.335938 -1.019531 0.296875 -1.625 Z M 1.125 -1.625 "/>
</g>
</g>
</defs>
<rect x="-50.4" y="-36" width="604.8" height="432" fill="rgb(100%, 100%, 100%)" fill-opacity="1"/>
<path fill-rule="nonzero" fill="rgb(8.627451%, 63.921569%, 29.019608%)" fill-opacity="1" stroke-width="1.066978" stroke-linecap="butt" stroke-linejoin="miter" stroke="rgb(0%, 0%, 0%)" stroke-opacity="1" stroke-miterlimit="10" d="M 22.910156 250.488281 L 93.398438 250.488281 L 93.398438 180 L 22.910156 180 Z M 22.910156 250.488281 "/>
<path fill-rule="nonzero" fill="rgb(8.627451%, 63.921569%, 29.019608%)" fill-opacity="1" stroke-width="1.066978" stroke-linecap="butt" stroke-linejoin="miter" stroke="rgb(0%, 0%, 0%)" stroke-opacity="1" stroke-miterlimit="10" d="M 111.019531 250.488281 L 181.507812 250.488281 L 181.507812 180 L 111.019531 180 Z M 111.019531 250.488281 "/>
<path fill-rule="nonzero" fill="rgb(8.627451%, 63.921569%, 29.019608%)" fill-opacity="1" stroke-width="1.066978" stroke-linecap="butt" stroke-linejoin="miter" stroke="rgb(0%, 0%, 0%)" stroke-opacity="1" stroke-miterlimit="10" d="M 216.753906 250.488281 L 316.441406 250.488281 L 316.441406 150.800781 L 216.753906 150.800781 Z M 216.753906 250.488281 "/>
<path fill="none" stroke-width="1.066978" stroke-linecap="butt" stroke-linejoin="miter" stroke="rgb(0%, 0%, 0%)" stroke-opacity="1" stroke-miterlimit="10" d="M 340.113281 250.488281 L 481.09375 250.488281 L 481.09375 109.507812 L 340.113281 109.507812 Z M 340.113281 250.488281 "/>
<g fill="rgb(0%, 0%, 0%)" fill-opacity="1">
<use xlink:href="#glyph-0-1" x="40.652344" y="205.737305"/>
<use xlink:href="#glyph-0-2" x="47.652344" y="205.737305"/>
<use xlink:href="#glyph-0-3" x="52.652344" y="205.737305"/>
<use xlink:href="#glyph-0-4" x="54.652344" y="205.737305"/>
<use xlink:href="#glyph-0-5" x="59.652344" y="205.737305"/>
<use xlink:href="#glyph-0-6" x="64.652344" y="205.737305"/>
<use xlink:href="#glyph-0-7" x="67.652344" y="205.737305"/>
<use xlink:href="#glyph-0-8" x="70.652344" y="205.737305"/>
</g>
<g fill="rgb(0%, 0%, 0%)" fill-opacity="1">
<use xlink:href="#glyph-0-9" x="43.652344" y="217.756836"/>
<use xlink:href="#glyph-0-10" x="49.652344" y="217.756836"/>
<use xlink:href="#glyph-0-7" x="56.652344" y="217.756836"/>
<use xlink:href="#glyph-0-11" x="59.652344" y="217.756836"/>
<use xlink:href="#glyph-0-7" x="64.652344" y="217.756836"/>
<use xlink:href="#glyph-0-12" x="67.652344" y="217.756836"/>
</g>
<g fill="rgb(0%, 0%, 0%)" fill-opacity="1">
<use xlink:href="#glyph-0-13" x="40.652344" y="229.772461"/>
<use xlink:href="#glyph-0-14" x="46.652344" y="229.772461"/>
<use xlink:href="#glyph-0-15" x="51.652344" y="229.772461"/>
<use xlink:href="#glyph-0-7" x="54.652344" y="229.772461"/>
<use xlink:href="#glyph-0-11" x="57.652344" y="229.772461"/>
<use xlink:href="#glyph-0-7" x="62.652344" y="229.772461"/>
<use xlink:href="#glyph-0-16" x="65.652344" y="229.772461"/>
<use xlink:href="#glyph-0-17" x="70.652344" y="229.772461"/>
</g>
<g fill="rgb(0%, 0%, 0%)" fill-opacity="1">
<use xlink:href="#glyph-0-1" x="128.765625" y="205.737305"/>
<use xlink:href="#glyph-0-2" x="135.765625" y="205.737305"/>
<use xlink:href="#glyph-0-3" x="140.765625" y="205.737305"/>
<use xlink:href="#glyph-0-4" x="142.765625" y="205.737305"/>
<use xlink:href="#glyph-0-5" x="147.765625" y="205.737305"/>
<use xlink:href="#glyph-0-6" x="152.765625" y="205.737305"/>
<use xlink:href="#glyph-0-7" x="155.765625" y="205.737305"/>
<use xlink:href="#glyph-0-18" x="158.765625" y="205.737305"/>
</g>
<g fill="rgb(0%, 0%, 0%)" fill-opacity="1">
<use xlink:href="#glyph-0-9" x="131.765625" y="217.756836"/>
<use xlink:href="#glyph-0-10" x="137.765625" y="217.756836"/>
<use xlink:href="#glyph-0-7" x="144.765625" y="217.756836"/>
<use xlink:href="#glyph-0-11" x="147.765625" y="217.756836"/>
<use xlink:href="#glyph-0-7" x="152.765625" y="217.756836"/>
<use xlink:href="#glyph-0-12" x="155.765625" y="217.756836"/>
</g>
<g fill="rgb(0%, 0%, 0%)" fill-opacity="1">
<use xlink:href="#glyph-0-13" x="128.765625" y="229.772461"/>
<use xlink:href="#glyph-0-14" x="134.765625" y="229.772461"/>
<use xlink:href="#glyph-0-15" x="139.765625" y="229.772461"/>
<use xlink:href="#glyph-0-7" x="142.765625" y="229.772461"/>
<use xlink:href="#glyph-0-11" x="145.765625" y="229.772461"/>
<use xlink:href="#glyph-0-7" x="150.765625" y="229.772461"/>
<use xlink:href="#glyph-0-16" x="153.765625" y="229.772461"/>
<use xlink:href="#glyph-0-17" x="158.765625" y="229.772461"/>
</g>
<g fill="rgb(0%, 0%, 0%)" fill-opacity="1">
<use xlink:href="#glyph-0-9" x="238.097656" y="191.139648"/>
<use xlink:href="#glyph-0-19" x="244.097656" y="191.139648"/>
<use xlink:href="#glyph-0-20" x="249.097656" y="191.139648"/>
<use xlink:href="#glyph-0-7" x="257.097656" y="191.139648"/>
<use xlink:href="#glyph-0-21" x="260.097656" y="191.139648"/>
<use xlink:href="#glyph-0-22" x="263.097656" y="191.139648"/>
<use xlink:href="#glyph-0-23" x="268.097656" y="191.139648"/>
<use xlink:href="#glyph-0-15" x="273.097656" y="191.139648"/>
<use xlink:href="#glyph-0-15" x="276.097656" y="191.139648"/>
<use xlink:href="#glyph-0-2" x="279.097656" y="191.139648"/>
<use xlink:href="#glyph-0-22" x="284.097656" y="191.139648"/>
<use xlink:href="#glyph-0-6" x="289.097656" y="191.139648"/>
<use xlink:href="#glyph-0-24" x="292.097656" y="191.139648"/>
</g>
<g fill="rgb(0%, 0%, 0%)" fill-opacity="1">
<use xlink:href="#glyph-0-9" x="245.597656" y="203.155273"/>
<use xlink:href="#glyph-0-10" x="251.597656" y="203.155273"/>
<use xlink:href="#glyph-0-7" x="258.597656" y="203.155273"/>
<use xlink:href="#glyph-0-11" x="261.597656" y="203.155273"/>
<use xlink:href="#glyph-0-7" x="266.597656" y="203.155273"/>
<use xlink:href="#glyph-0-8" x="269.597656" y="203.155273"/>
<use xlink:href="#glyph-0-8" x="274.597656" y="203.155273"/>
<use xlink:href="#glyph-0-25" x="279.597656" y="203.155273"/>
<use xlink:href="#glyph-0-26" x="282.597656" y="203.155273"/>
</g>
<g fill="rgb(0%, 0%, 0%)" fill-opacity="1">
<use xlink:href="#glyph-0-13" x="246.597656" y="215.174805"/>
<use xlink:href="#glyph-0-14" x="252.597656" y="215.174805"/>
<use xlink:href="#glyph-0-15" x="257.597656" y="215.174805"/>
<use xlink:href="#glyph-0-7" x="260.597656" y="215.174805"/>
<use xlink:href="#glyph-0-11" x="263.597656" y="215.174805"/>
<use xlink:href="#glyph-0-7" x="268.597656" y="215.174805"/>
<use xlink:href="#glyph-0-8" x="271.597656" y="215.174805"/>
<use xlink:href="#glyph-0-18" x="276.597656" y="215.174805"/>
<use xlink:href="#glyph-0-12" x="281.597656" y="215.174805"/>
</g>
<g fill="rgb(0%, 0%, 0%)" fill-opacity="1">
<use xlink:href="#glyph-0-9" x="369.601562" y="170.491211"/>
<use xlink:href="#glyph-0-19" x="375.601562" y="170.491211"/>
<use xlink:href="#glyph-0-20" x="380.601562" y="170.491211"/>
<use xlink:href="#glyph-0-7" x="388.601562" y="170.491211"/>
<use xlink:href="#glyph-0-21" x="391.601562" y="170.491211"/>
<use xlink:href="#glyph-0-3" x="394.601562" y="170.491211"/>
<use xlink:href="#glyph-0-27" x="396.601562" y="170.491211"/>
<use xlink:href="#glyph-0-7" x="399.601562" y="170.491211"/>
<use xlink:href="#glyph-0-9" x="402.601562" y="170.491211"/>
<use xlink:href="#glyph-0-10" x="408.601562" y="170.491211"/>
<use xlink:href="#glyph-0-28" x="415.601562" y="170.491211"/>
<use xlink:href="#glyph-0-7" x="420.601562" y="170.491211"/>
<use xlink:href="#glyph-0-14" x="423.601562" y="170.491211"/>
<use xlink:href="#glyph-0-29" x="428.601562" y="170.491211"/>
<use xlink:href="#glyph-0-29" x="433.601562" y="170.491211"/>
<use xlink:href="#glyph-0-2" x="438.601562" y="170.491211"/>
<use xlink:href="#glyph-0-29" x="443.601562" y="170.491211"/>
<use xlink:href="#glyph-0-24" x="448.601562" y="170.491211"/>
</g>
<g fill="rgb(0%, 0%, 0%)" fill-opacity="1">
<use xlink:href="#glyph-0-9" x="393.601562" y="182.510742"/>
<use xlink:href="#glyph-0-10" x="399.601562" y="182.510742"/>
<use xlink:href="#glyph-0-7" x="406.601562" y="182.510742"/>
<use xlink:href="#glyph-0-11" x="409.601562" y="182.510742"/>
<use xlink:href="#glyph-0-7" x="414.601562" y="182.510742"/>
<use xlink:href="#glyph-0-8" x="417.601562" y="182.510742"/>
<use xlink:href="#glyph-0-16" x="422.601562" y="182.510742"/>
</g>
<g fill="rgb(0%, 0%, 0%)" fill-opacity="1">
<use xlink:href="#glyph-0-13" x="390.601562" y="194.530273"/>
<use xlink:href="#glyph-0-14" x="396.601562" y="194.530273"/>
<use xlink:href="#glyph-0-15" x="401.601562" y="194.530273"/>
<use xlink:href="#glyph-0-7" x="404.601562" y="194.530273"/>
<use xlink:href="#glyph-0-11" x="407.601562" y="194.530273"/>
<use xlink:href="#glyph-0-7" x="412.601562" y="194.530273"/>
<use xlink:href="#glyph-0-18" x="415.601562" y="194.530273"/>
<use xlink:href="#glyph-0-30" x="420.601562" y="194.530273"/>
<use xlink:href="#glyph-0-16" x="425.601562" y="194.530273"/>
</g>
</svg>
